<svg width="30" height="30" viewBox="0 0 30 30" fill="none" xmlns="http://www.w3.org/2000/svg">
<path d="M2.68421 5.68421V5C2.50275 5 2.32872 5.07209 2.2004 5.2004C2.07209 5.32872 2 5.50275 2 5.68421H2.68421ZM27.3158 5.68421H28C28 5.50275 27.9279 5.32872 27.7996 5.2004C27.6713 5.07209 27.4973 5 27.3158 5V5.68421ZM2.68421 6.36842H27.3158V5H2.68421V6.36842ZM26.6316 5.68421V22.1053H28V5.68421H26.6316ZM24.5789 24.1579H5.42105V25.5263H24.5789V24.1579ZM3.36842 22.1053V5.68421H2V22.1053H3.36842ZM5.42105 24.1579C4.87666 24.1579 4.35457 23.9416 3.96962 23.5567C3.58468 23.1717 3.36842 22.6497 3.36842 22.1053H2C2 23.0126 2.36043 23.8827 3.002 24.5243C3.64357 25.1659 4.51373 25.5263 5.42105 25.5263V24.1579ZM26.6316 22.1053C26.6316 22.6497 26.4153 23.1717 26.0304 23.5567C25.6454 23.9416 25.1233 24.1579 24.5789 24.1579V25.5263C25.4863 25.5263 26.3564 25.1659 26.998 24.5243C27.6396 23.8827 28 23.0126 28 22.1053H26.6316Z" fill="#D8D8D8"/>
<path d="M2.68457 5.68433L15.0004 18.0001L27.3161 5.68433" stroke="#D8D8D8" stroke-linecap="round" stroke-linejoin="round"/>
</svg>
