<svg width="30" height="30" viewBox="0 0 30 30" fill="none" xmlns="http://www.w3.org/2000/svg">
<path d="M18.5318 16.0597H24.5745V14.5776H18.5318V16.0597ZM18.5318 11.9542H24.5745V10.4721H18.5318V11.9542ZM6.10405 20.2779H15.9099V20.0319C15.9099 19.1673 15.4751 18.4979 14.6056 18.0236C13.7361 17.5493 12.5366 17.3122 11.007 17.3122C9.47741 17.3122 8.27737 17.5493 7.40686 18.0236C6.53634 18.4979 6.10208 19.1673 6.10405 20.0319V20.2779ZM11.007 14.9185C11.6324 14.9185 12.1591 14.7046 12.5869 14.2767C13.0158 13.8479 13.2302 13.3207 13.2302 12.6953C13.2302 12.0698 13.0158 11.5432 12.5869 11.1153C12.1581 10.6875 11.6315 10.4731 11.007 10.4721C10.3825 10.4711 9.85585 10.6855 9.42702 11.1153C8.99818 11.5451 8.78377 12.0718 8.78377 12.6953C8.78377 13.3188 8.99818 13.8459 9.42702 14.2767C9.85585 14.7075 10.3825 14.9215 11.007 14.9185ZM4.39514 25.75C3.71237 25.75 3.14273 25.5217 2.68623 25.0652C2.22973 24.6087 2.00099 24.0386 2 23.3549V7.39514C2 6.71237 2.22874 6.14273 2.68623 5.68623C3.14372 5.22973 3.71286 5.00099 4.39366 5H26.2849C26.9667 5 27.5358 5.22874 27.9923 5.68623C28.4488 6.14372 28.6776 6.71336 28.6786 7.39514V23.3563C28.6786 24.0381 28.4498 24.6078 27.9923 25.0652C27.5348 25.5227 26.9657 25.751 26.2849 25.75H4.39514ZM4.39514 24.2679H26.2849C26.5122 24.2679 26.7212 24.173 26.9119 23.9833C27.1026 23.7936 27.1974 23.5841 27.1964 23.3549V7.39514C27.1964 7.16689 27.1016 6.95742 26.9119 6.76671C26.7221 6.57601 26.5132 6.48115 26.2849 6.48214H4.39366C4.1664 6.48214 3.95742 6.577 3.76671 6.76671C3.57601 6.95643 3.48115 7.1659 3.48214 7.39514V23.3563C3.48214 23.5836 3.577 23.7926 3.76671 23.9833C3.95643 24.174 4.16541 24.2688 4.39366 24.2679" fill="#D8D8D8"/>
</svg>
