<svg width="30" height="30" viewBox="0 0 30 30" fill="none" xmlns="http://www.w3.org/2000/svg">
<path d="M16.7565 15.6892H17.2985C17.1308 16.5219 17.2342 17.1414 17.4779 17.5947C17.7759 18.1492 18.2328 18.3589 18.4045 18.4151L18.5599 17.9401L18.4028 18.4145C20.361 19.0629 22.4251 19.9932 23.9885 21.0603C24.7705 21.5941 25.409 22.1499 25.8475 22.7061C26.2868 23.2633 26.5 23.7877 26.5 24.2719V25.196C26.5 25.8481 26.1981 26.3908 25.5936 26.8624C24.9741 27.3458 24.0572 27.7343 22.9061 28.0319C20.6079 28.6261 17.5438 28.8175 14.5365 28.8175C11.5339 28.8175 8.45103 28.6262 6.13287 28.0317C4.97157 27.7338 4.04423 27.345 3.41699 26.8608C2.80446 26.3881 2.5 25.8456 2.5 25.196V24.2719C2.5 23.8088 2.70956 23.2976 3.14583 22.7455C3.5805 22.1955 4.21197 21.6418 4.98116 21.1061C6.51868 20.0353 8.53371 19.0866 10.4016 18.4112L10.4037 18.4104C10.6138 18.3334 11.1131 18.0717 11.4571 17.5228C11.8205 16.943 11.9631 16.1183 11.5488 15.0316L11.5117 14.9342L11.4388 14.8598C9.64781 13.0308 8.28738 10.0503 8.28738 7.13309C8.28738 4.90761 9.01998 3.25999 10.1366 2.16879C11.257 1.07386 12.8041 0.5 14.5011 0.5C16.197 0.5 17.7482 1.07417 18.8728 2.16976C19.9934 3.26144 20.7297 4.90903 20.7297 7.13309C20.7297 10.036 19.3625 13.0052 17.5802 14.8409L16.7565 15.6892Z" stroke="#D8D8D8"/>
</svg>
