<svg width="30" height="30" viewBox="0 0 30 30" fill="none" xmlns="http://www.w3.org/2000/svg">
<path d="M25.0313 30H4.96875C3.2625 30 1.875 28.6125 1.875 26.9063V12.4688C1.875 10.7625 3.2625 9.375 4.96875 9.375H25.0313C26.7375 9.375 28.125 10.7625 28.125 12.4688V26.8875C28.125 28.5938 26.7375 29.9812 25.0313 29.9812V30ZM4.96875 11.25C4.29375 11.25 3.75 11.7938 3.75 12.4688V26.8875C3.75 27.5625 4.29375 28.1062 4.96875 28.1062H25.0313C25.7063 28.1062 26.25 27.5625 26.25 26.8875V12.4688C26.25 11.7938 25.7063 11.25 25.0313 11.25H4.96875Z" fill="#D8D8D8"/>
<path d="M23.5123 11.25H6.4873V8.5125C6.4873 3.825 10.3123 0 14.9998 0C19.6873 0 23.5123 3.825 23.5123 8.5125V11.25ZM8.3623 9.375H21.6373V8.5125C21.6373 4.85625 18.6561 1.875 14.9998 1.875C11.3436 1.875 8.3623 4.85625 8.3623 8.5125V9.375Z" fill="#D8D8D8"/>
<path d="M15.0002 21C16.1012 21 15.9974 20.6569 15.9974 19C15.9974 17.3431 16.1012 17 15.0002 17C13.8992 17 14.0026 17.3431 14.0026 19C14.0026 20.6569 13.8992 21 15.0002 21Z" fill="#D8D8D8"/>
</svg>
