<svg width="28" height="31" viewBox="0 0 28 31" fill="none" xmlns="http://www.w3.org/2000/svg">
<path d="M17.4375 22.4444V23.8333C17.4375 24.9384 17.0227 25.9982 16.2842 26.7796C15.5458 27.561 14.5443 28 13.5 28C12.4557 28 11.4542 27.561 10.7158 26.7796C9.97734 25.9982 9.5625 24.9384 9.5625 23.8333V22.4444M17.4375 22.4444H9.5625M17.4375 22.4444H22.1494C22.6521 22.4444 22.9041 22.4444 23.1075 22.3722C23.2989 22.3037 23.4727 22.1893 23.6154 22.038C23.7581 21.8867 23.866 21.7026 23.9304 21.5C24 21.2833 24 21.0167 24 20.4806C24 20.2458 24 20.1292 23.9816 20.0167C23.9492 19.8064 23.8715 19.6068 23.7546 19.4333C23.6916 19.3403 23.6128 19.2569 23.4566 19.0917L22.9447 18.55C22.8631 18.4635 22.7984 18.3609 22.7542 18.2479C22.7101 18.135 22.6874 18.0139 22.6875 17.8917V12.7222C22.6875 11.4455 22.4499 10.1812 21.9881 9.00169C21.5264 7.82213 20.8497 6.75036 19.9965 5.84757C19.1434 4.94478 18.1306 4.22865 17.0159 3.74006C15.9012 3.25147 14.7065 3 13.5 3C12.2935 3 11.0988 3.25147 9.9841 3.74006C8.86942 4.22865 7.85659 4.94478 7.00346 5.84757C6.15032 6.75036 5.47357 7.82213 5.01186 9.00169C4.55014 10.1812 4.3125 11.4455 4.3125 12.7222V17.8917C4.31258 18.0139 4.28991 18.135 4.24577 18.2479C4.20163 18.3609 4.13689 18.4635 4.05525 18.55L3.54338 19.0917C3.38588 19.2583 3.30844 19.3403 3.24675 19.4319C3.12866 19.6055 3.05006 19.8056 3.01706 20.0167C3 20.1278 3 20.2458 3 20.4806C3 21.0167 3 21.2833 3.06825 21.5C3.133 21.7029 3.24121 21.8872 3.38442 22.0385C3.52764 22.1898 3.70197 22.304 3.89381 22.3722C4.09725 22.4444 4.34794 22.4444 4.85062 22.4444H9.5625" stroke="#555555" stroke-width="1.5" stroke-linecap="round" stroke-linejoin="round"/>
</svg>
