<svg width="42" height="40" viewBox="0 0 42 40" fill="none" xmlns="http://www.w3.org/2000/svg">
<g clip-path="url(#clip0_32_1249)">
<rect width="42" height="40" rx="20" fill="#E4E4E4"/>
<path d="M20.9818 30.1667C21.3903 30.1667 21.7716 29.9916 22.1344 29.3556L23.8132 26.5069H26.844C29.5481 26.5069 31 24.9854 31 22.2842V15.2223C31 12.5211 29.5481 11 26.844 11H15.156C12.4612 11 11 12.5121 11 15.2223V22.2842C11 24.9944 12.4608 26.5069 15.156 26.5069H18.1508L19.8296 29.3556C20.1923 29.9916 20.5733 30.1667 20.9818 30.1667Z" fill="white"/>
<path d="M14.9124 16.94C14.9124 17.0893 14.9077 17.234 14.8984 17.374C14.889 17.514 14.8797 17.6237 14.8704 17.703H14.9124C15.015 17.5443 15.155 17.4113 15.3324 17.304C15.5097 17.192 15.7407 17.136 16.0254 17.136C16.4687 17.136 16.8257 17.3017 17.0964 17.633C17.367 17.9643 17.5024 18.452 17.5024 19.096C17.5024 19.53 17.4394 19.894 17.3134 20.188C17.192 20.482 17.017 20.7037 16.7884 20.853C16.5644 20.9977 16.303 21.07 16.0044 21.07C15.7197 21.07 15.491 21.0187 15.3184 20.916C15.1504 20.8133 15.015 20.6943 14.9124 20.559H14.8494L14.6884 21H14.0304V15.68H14.9124V16.94ZM15.7734 17.85C15.5587 17.85 15.3884 17.892 15.2624 17.976C15.141 18.06 15.0524 18.1883 14.9964 18.361C14.9404 18.5337 14.9124 18.753 14.9124 19.019V19.096C14.9124 19.502 14.973 19.8123 15.0944 20.027C15.2204 20.2417 15.4514 20.349 15.7874 20.349C16.0487 20.349 16.2494 20.2417 16.3894 20.027C16.5294 19.8077 16.5994 19.495 16.5994 19.089C16.5994 18.6783 16.527 18.3703 16.3824 18.165C16.2424 17.955 16.0394 17.85 15.7734 17.85ZM19.2942 21H18.4122V15.68H19.2942V21ZM23.81 19.096C23.81 19.4133 23.768 19.6933 23.684 19.936C23.6 20.1787 23.4786 20.3863 23.32 20.559C23.166 20.727 22.9746 20.8553 22.746 20.944C22.522 21.028 22.2723 21.07 21.997 21.07C21.7356 21.07 21.4953 21.028 21.276 20.944C21.0566 20.8553 20.8653 20.727 20.702 20.559C20.5433 20.3863 20.4196 20.1787 20.331 19.936C20.2423 19.6933 20.198 19.4133 20.198 19.096C20.198 18.676 20.2703 18.3213 20.415 18.032C20.5596 17.738 20.7673 17.5163 21.038 17.367C21.3133 17.213 21.6376 17.136 22.011 17.136C22.3656 17.136 22.676 17.213 22.942 17.367C23.2126 17.5163 23.425 17.738 23.579 18.032C23.733 18.3213 23.81 18.676 23.81 19.096ZM21.101 19.096C21.101 19.362 21.1313 19.5907 21.192 19.782C21.2573 19.9687 21.3553 20.111 21.486 20.209C21.6213 20.307 21.794 20.356 22.004 20.356C22.2186 20.356 22.3913 20.307 22.522 20.209C22.6573 20.111 22.7553 19.9687 22.816 19.782C22.8766 19.5907 22.907 19.362 22.907 19.096C22.907 18.8253 22.8743 18.599 22.809 18.417C22.7483 18.2303 22.6503 18.0903 22.515 17.997C22.3843 17.899 22.214 17.85 22.004 17.85C21.6866 17.85 21.4556 17.9573 21.311 18.172C21.171 18.3867 21.101 18.6947 21.101 19.096ZM25.9958 17.136C26.2338 17.136 26.4485 17.1827 26.6398 17.276C26.8311 17.3693 26.9921 17.5093 27.1228 17.696H27.1578L27.2418 17.206H27.9768V21.028C27.9768 21.3873 27.9091 21.6883 27.7738 21.931C27.6385 22.1783 27.4355 22.365 27.1648 22.491C26.8941 22.617 26.5558 22.68 26.1498 22.68C25.8791 22.68 25.6295 22.6613 25.4008 22.624C25.1721 22.5913 24.9551 22.533 24.7498 22.449V21.721C24.8945 21.7817 25.0438 21.833 25.1978 21.875C25.3565 21.9217 25.5198 21.9567 25.6878 21.98C25.8558 22.0033 26.0285 22.015 26.2058 22.015C26.4951 22.015 26.7145 21.9333 26.8638 21.77C27.0178 21.6067 27.0948 21.3733 27.0948 21.07V20.972C27.0948 20.902 27.0971 20.8203 27.1018 20.727C27.1111 20.6337 27.1181 20.559 27.1228 20.503H27.0948C26.9641 20.699 26.8055 20.8437 26.6188 20.937C26.4321 21.0257 26.2175 21.07 25.9748 21.07C25.5128 21.07 25.1511 20.8973 24.8898 20.552C24.6285 20.2067 24.4978 19.726 24.4978 19.11C24.4978 18.6947 24.5561 18.34 24.6728 18.046C24.7941 17.752 24.9668 17.528 25.1908 17.374C25.4148 17.2153 25.6831 17.136 25.9958 17.136ZM26.2268 17.857C26.0495 17.857 25.8978 17.906 25.7718 18.004C25.6505 18.0973 25.5571 18.2373 25.4918 18.424C25.4311 18.6107 25.4008 18.844 25.4008 19.124C25.4008 19.5347 25.4708 19.845 25.6108 20.055C25.7508 20.265 25.9608 20.37 26.2408 20.37C26.3995 20.37 26.5348 20.3513 26.6468 20.314C26.7588 20.272 26.8498 20.2067 26.9198 20.118C26.9945 20.0247 27.0505 19.908 27.0878 19.768C27.1251 19.6233 27.1438 19.4507 27.1438 19.25V19.117C27.1438 18.8137 27.1111 18.571 27.0458 18.389C26.9805 18.2023 26.8801 18.067 26.7448 17.983C26.6141 17.899 26.4415 17.857 26.2268 17.857Z" fill="#E4E4E4"/>
</g>
<defs>
<clipPath id="clip0_32_1249">
<rect width="42" height="40" rx="20" fill="white"/>
</clipPath>
</defs>
</svg>
