<svg width="40" height="40" viewBox="0 0 40 40" fill="none" xmlns="http://www.w3.org/2000/svg">
<path d="M25.963 5.63634L29.2963 7.38634C32.8813 9.26801 34.6747 10.208 35.6713 11.8997C36.6663 13.5897 36.6663 15.6947 36.6663 19.903V20.098C36.6663 24.3047 36.6663 26.4097 35.6713 28.0997C34.6747 29.7913 32.8813 30.733 29.2963 32.6147L25.963 34.363C23.0363 35.898 21.573 36.6663 19.9997 36.6663C18.4263 36.6663 16.963 35.8997 14.0363 34.363L10.703 32.613C7.11801 30.7313 5.32467 29.7913 4.32801 28.0997C3.33301 26.4097 3.33301 24.3047 3.33301 20.0997V19.9047C3.33301 15.6963 3.33301 13.5913 4.32801 11.9013C5.32467 10.2097 7.11801 9.26801 10.703 7.38801L14.0363 5.63801C16.963 4.10134 18.4263 3.33301 19.9997 3.33301C21.573 3.33301 23.0363 4.09967 25.963 5.63634Z" stroke="#1D1D1D" stroke-width="1.5" stroke-linecap="round"/>
<path d="M35 12.5L28.3333 15.8333M28.3333 15.8333L27.5 16.25L20 20M28.3333 15.8333V21.6667M28.3333 15.8333L12.5 7.5M20 20L5 12.5M20 20V35.8333" stroke="#39553F" stroke-width="1.5" stroke-linecap="round"/>
</svg>
