<svg width="28" height="31" viewBox="0 0 28 31" fill="none" xmlns="http://www.w3.org/2000/svg">
<path d="M18.1667 13.3333V8.16667C18.1667 6.79638 17.675 5.48222 16.7998 4.51328C15.9247 3.54434 14.7377 3 13.5 3C12.2623 3 11.0753 3.54434 10.2002 4.51328C9.325 5.48222 8.83333 6.79638 8.83333 8.16667V13.3333M3 9.45833V23.6667C3 25.037 3.49167 26.3511 4.36683 27.32C5.242 28.289 6.42899 28.8333 7.66667 28.8333H19.3333C20.571 28.8333 21.758 28.289 22.6332 27.32C23.5083 26.3511 24 25.037 24 23.6667V9.45833H3Z" stroke="#555555" stroke-width="1.5" stroke-linecap="round" stroke-linejoin="round"/>
</svg>
