<svg width="36" height="23" viewBox="0 0 36 23" fill="none" xmlns="http://www.w3.org/2000/svg">
<path d="M22.5 19H15.5H3C1.89543 19 1 18.1046 1 17V3C1 1.89543 1.89543 1 3 1H28C29.1046 1 30 1.89543 30 3V10" stroke="#1D1D1D" stroke-width="1.5" stroke-linecap="round"/>
<rect x="24.5" y="11.5" width="11" height="11" rx="5.5" stroke="#497248"/>
<path d="M27.5 15C27.5 15 28 19 28.5 19C29 19 29.5 15 30 15C30.5 15 31 19 31.5 19C32 19 32.5 15 32.5 15" stroke="#497248" stroke-linecap="round"/>
<path d="M1 5.5H15.5" stroke="#1D1D1D" stroke-width="1.5"  stroke-linecap="round"/>
</svg>
