<svg width="28" height="28" viewBox="0 0 28 28" fill="none" xmlns="http://www.w3.org/2000/svg">
<path fill-rule="evenodd" clip-rule="evenodd" d="M2.09961 8.40005C2.09961 7.84309 2.32086 7.30895 2.71469 6.91512C3.10852 6.5213 3.64266 6.30005 4.19961 6.30005H23.7996C24.3566 6.30005 24.8907 6.5213 25.2845 6.91512C25.6784 7.30895 25.8996 7.84309 25.8996 8.40005V12.096C25.8996 12.4726 25.6742 12.81 25.3284 12.9542C25.1222 13.0404 24.9461 13.1855 24.8223 13.3715C24.6984 13.5575 24.6323 13.7759 24.6323 13.9993C24.6323 14.2228 24.6984 14.4412 24.8223 14.6272C24.9461 14.8132 25.1222 14.9583 25.3284 15.0444C25.4981 15.1146 25.6431 15.2336 25.7448 15.3865C25.8466 15.5393 25.9004 15.719 25.8996 15.9026V19.6C25.8996 20.157 25.6784 20.6911 25.2845 21.085C24.8907 21.4788 24.3566 21.7 23.7996 21.7H4.19961C3.64266 21.7 3.10852 21.4788 2.71469 21.085C2.32086 20.6911 2.09961 20.157 2.09961 19.6V15.904C2.09961 15.5274 2.32501 15.19 2.67081 15.0444C2.87699 14.9583 3.05309 14.8132 3.17695 14.6272C3.30081 14.4412 3.36689 14.2228 3.36689 13.9993C3.36689 13.7759 3.30081 13.5575 3.17695 13.3715C3.05309 13.1855 2.87699 13.0404 2.67081 12.9542C2.50133 12.8842 2.35651 12.7654 2.25479 12.6128C2.15308 12.4602 2.09906 12.2808 2.09961 12.0974V8.40005ZM4.19961 7.70005C4.01396 7.70005 3.83591 7.7738 3.70464 7.90507C3.57336 8.03635 3.49961 8.2144 3.49961 8.40005V11.8034C5.19081 12.7596 5.19081 15.2404 3.49961 16.1966V19.6C3.49961 19.7857 3.57336 19.9637 3.70464 20.095C3.83591 20.2263 4.01396 20.3 4.19961 20.3H23.7996C23.9853 20.3 24.1633 20.2263 24.2946 20.095C24.4259 19.9637 24.4996 19.7857 24.4996 19.6V16.1966C22.8084 15.2404 22.8084 12.7596 24.4996 11.8034V8.40005C24.4996 8.2144 24.4259 8.03635 24.2946 7.90507C24.1633 7.7738 23.9853 7.70005 23.7996 7.70005H4.19961Z" fill="#2D2D2D"/>
<path fill-rule="evenodd" clip-rule="evenodd" d="M2.09961 8.40005C2.09961 7.84309 2.32086 7.30895 2.71469 6.91512C3.10852 6.5213 3.64266 6.30005 4.19961 6.30005H23.7996C24.3566 6.30005 24.8907 6.5213 25.2845 6.91512C25.6784 7.30895 25.8996 7.84309 25.8996 8.40005V12.096C25.8996 12.4726 25.6742 12.81 25.3284 12.9542C25.1222 13.0404 24.9461 13.1855 24.8223 13.3715C24.6984 13.5575 24.6323 13.7759 24.6323 13.9993C24.6323 14.2228 24.6984 14.4412 24.8223 14.6272C24.9461 14.8132 25.1222 14.9583 25.3284 15.0444C25.4981 15.1146 25.6431 15.2336 25.7448 15.3865C25.8466 15.5393 25.9004 15.719 25.8996 15.9026V19.6C25.8996 20.157 25.6784 20.6911 25.2845 21.085C24.8907 21.4788 24.3566 21.7 23.7996 21.7H4.19961C3.64266 21.7 3.10852 21.4788 2.71469 21.085C2.32086 20.6911 2.09961 20.157 2.09961 19.6V15.904C2.09961 15.5274 2.32501 15.19 2.67081 15.0444C2.87699 14.9583 3.05309 14.8132 3.17695 14.6272C3.30081 14.4412 3.36689 14.2228 3.36689 13.9993C3.36689 13.7759 3.30081 13.5575 3.17695 13.3715C3.05309 13.1855 2.87699 13.0404 2.67081 12.9542C2.50133 12.8842 2.35651 12.7654 2.25479 12.6128C2.15308 12.4602 2.09906 12.2808 2.09961 12.0974V8.40005ZM4.19961 7.70005C4.01396 7.70005 3.83591 7.7738 3.70464 7.90507C3.57336 8.03635 3.49961 8.2144 3.49961 8.40005V11.8034C5.19081 12.7596 5.19081 15.2404 3.49961 16.1966V19.6C3.49961 19.7857 3.57336 19.9637 3.70464 20.095C3.83591 20.2263 4.01396 20.3 4.19961 20.3H23.7996C23.9853 20.3 24.1633 20.2263 24.2946 20.095C24.4259 19.9637 24.4996 19.7857 24.4996 19.6V16.1966C22.8084 15.2404 22.8084 12.7596 24.4996 11.8034V8.40005C24.4996 8.2144 24.4259 8.03635 24.2946 7.90507C24.1633 7.7738 23.9853 7.70005 23.7996 7.70005H4.19961Z" fill="black" fill-opacity="0.2"/>
<path fill-rule="evenodd" clip-rule="evenodd" d="M2.09961 8.40005C2.09961 7.84309 2.32086 7.30895 2.71469 6.91512C3.10852 6.5213 3.64266 6.30005 4.19961 6.30005H23.7996C24.3566 6.30005 24.8907 6.5213 25.2845 6.91512C25.6784 7.30895 25.8996 7.84309 25.8996 8.40005V12.096C25.8996 12.4726 25.6742 12.81 25.3284 12.9542C25.1222 13.0404 24.9461 13.1855 24.8223 13.3715C24.6984 13.5575 24.6323 13.7759 24.6323 13.9993C24.6323 14.2228 24.6984 14.4412 24.8223 14.6272C24.9461 14.8132 25.1222 14.9583 25.3284 15.0444C25.4981 15.1146 25.6431 15.2336 25.7448 15.3865C25.8466 15.5393 25.9004 15.719 25.8996 15.9026V19.6C25.8996 20.157 25.6784 20.6911 25.2845 21.085C24.8907 21.4788 24.3566 21.7 23.7996 21.7H4.19961C3.64266 21.7 3.10852 21.4788 2.71469 21.085C2.32086 20.6911 2.09961 20.157 2.09961 19.6V15.904C2.09961 15.5274 2.32501 15.19 2.67081 15.0444C2.87699 14.9583 3.05309 14.8132 3.17695 14.6272C3.30081 14.4412 3.36689 14.2228 3.36689 13.9993C3.36689 13.7759 3.30081 13.5575 3.17695 13.3715C3.05309 13.1855 2.87699 13.0404 2.67081 12.9542C2.50133 12.8842 2.35651 12.7654 2.25479 12.6128C2.15308 12.4602 2.09906 12.2808 2.09961 12.0974V8.40005ZM4.19961 7.70005C4.01396 7.70005 3.83591 7.7738 3.70464 7.90507C3.57336 8.03635 3.49961 8.2144 3.49961 8.40005V11.8034C5.19081 12.7596 5.19081 15.2404 3.49961 16.1966V19.6C3.49961 19.7857 3.57336 19.9637 3.70464 20.095C3.83591 20.2263 4.01396 20.3 4.19961 20.3H23.7996C23.9853 20.3 24.1633 20.2263 24.2946 20.095C24.4259 19.9637 24.4996 19.7857 24.4996 19.6V16.1966C22.8084 15.2404 22.8084 12.7596 24.4996 11.8034V8.40005C24.4996 8.2144 24.4259 8.03635 24.2946 7.90507C24.1633 7.7738 23.9853 7.70005 23.7996 7.70005H4.19961Z" fill="black" fill-opacity="0.2"/>
<path fill-rule="evenodd" clip-rule="evenodd" d="M18 18.0238C18.2652 18.0238 18.5196 18.1217 18.7071 18.2958C18.8946 18.47 19 18.7061 19 18.9524V19.5715C19 19.8177 18.9723 20.3037 18.7071 20.3037C18.4419 20.3037 18.2652 20.3037 18 20.3037C17.7348 20.3037 17.5 20.3037 17.2929 20.3117C17 20.3037 17 19.8177 17 19.5715V18.9524C17 18.7061 17.1054 18.47 17.2929 18.2958C17.4804 18.1217 17.7348 18.0238 18 18.0238ZM18 7.68909C18.2652 7.68909 18.7071 7.68909 18.7071 7.68909C19 7.68909 19 8.18233 19 8.4286V9.04765C19 9.29392 18.8946 9.53011 18.7071 9.70425C18.5196 9.87839 18.2652 9.97622 18 9.97622C17.7348 9.97622 17.4804 9.87839 17.2929 9.70425C17.1054 9.53011 17 9.29392 17 9.04765V8.4286C17 8.18233 17.0858 7.68909 17.2929 7.68909C17.5 7.68909 17.7348 7.68909 18 7.68909ZM18 10.9048C18.2652 10.9048 18.5196 11.0026 18.7071 11.1768C18.8946 11.3509 19 11.5871 19 11.8334V12.4524C19 12.6987 18.8946 12.9349 18.7071 13.109C18.5196 13.2832 18.2652 13.381 18 13.381C17.7348 13.381 17.4804 13.2832 17.2929 13.109C17.1054 12.9349 17 12.6987 17 12.4524V11.8334C17 11.5871 17.1054 11.3509 17.2929 11.1768C17.4804 11.0026 17.7348 10.9048 18 10.9048ZM18 14.6191C18.2652 14.6191 18.5196 14.7169 18.7071 14.8911C18.8946 15.0652 19 15.3014 19 15.5477V16.1667C19 16.413 18.8946 16.6492 18.7071 16.8233C18.5196 16.9974 18.2652 17.0953 18 17.0953C17.7348 17.0953 17.4804 16.9974 17.2929 16.8233C17.1054 16.6492 17 16.413 17 16.1667V15.5477C17 15.3014 17.1054 15.0652 17.2929 14.8911C17.4804 14.7169 17.7348 14.6191 18 14.6191Z" fill="#C6C6C6"/>
</svg>
