<svg width="40" height="35" viewBox="0 0 40 35" fill="none" xmlns="http://www.w3.org/2000/svg">
<path d="M2.66699 26.1429H35.167V20.7858C33.917 20.4279 31.417 19.0715 31.417 16.5C31.417 13.2858 35.167 13.2857 35.167 12.2143V6.85718H2.66699V12.2143C3.91699 12.5722 6.41699 13.9286 6.41699 16.5C6.41699 19.7143 2.66699 19.7143 2.66699 20.7858V26.1429Z" stroke="black" stroke-linejoin="round"/>
<path d="M12.5 23.1428C12.5 22.8667 12.2761 22.6428 12 22.6428C11.7239 22.6428 11.5 22.8667 11.5 23.1428H12.5ZM11.5 23.1428V25.7143H12.5V23.1428H11.5Z" fill="#497248"/>
<path d="M11.5 9.85707C11.5 10.1332 11.7239 10.3571 12 10.3571C12.2761 10.3571 12.5 10.1332 12.5 9.85707H11.5ZM11.5 7.28564V9.85707H12.5V7.28564H11.5Z" fill="#497248"/>
<path d="M12 18V20.8573" stroke="#497248" stroke-linecap="round"/>
<path d="M12 12.4285V15.2857" stroke="#497248" stroke-linecap="round"/>
<path d="M28.7442 12.2551C29.0636 12.5745 29.0636 13.0931 28.7442 13.4125L20.4125 21.7442C20.0931 22.0636 19.5745 22.0636 19.2551 21.7442C18.9358 21.4249 18.9358 20.9062 19.2551 20.5868L27.5868 12.2551C27.9062 11.9358 28.4249 11.9358 28.7442 12.2551ZM21.8355 12.5011C22.1451 12.8106 22.319 13.2305 22.319 13.6683C22.319 14.1061 22.1451 14.526 21.8355 14.8355C21.526 15.1451 21.1061 15.319 20.6683 15.319C20.2305 15.319 19.8106 15.1451 19.5011 14.8355C19.1915 14.526 19.0176 14.1061 19.0176 13.6683C19.0176 13.2305 19.1915 12.8106 19.5011 12.5011C19.8106 12.1915 20.2305 12.0176 20.6683 12.0176C21.1061 12.0176 21.526 12.1915 21.8355 12.5011ZM28.5009 19.1664C28.8105 19.476 28.9844 19.8959 28.9844 20.3337C28.9844 20.7715 28.8105 21.1913 28.5009 21.5009C28.1913 21.8105 27.7715 21.9844 27.3337 21.9844C26.8959 21.9844 26.476 21.8105 26.1664 21.5009C25.8569 21.1913 25.6829 20.7715 25.6829 20.3337C25.6829 19.8959 25.8569 19.476 26.1664 19.1664C26.476 18.8569 26.8959 18.6829 27.3337 18.6829C27.7715 18.6829 28.1913 18.8569 28.5009 19.1664Z" fill="#497248" stroke="#497248" stroke-width="0.03125"/>
</svg>
