<svg width="42" height="40" viewBox="0 0 42 40" fill="none" xmlns="http://www.w3.org/2000/svg">
<g clip-path="url(#clip0_32_1253)">
<rect width="42" height="40" rx="20" fill="#E4E4E4"/>
<path d="M11.5498 19.5C11.5498 15.022 11.5498 12.782 13.0104 11.391C14.4709 10 16.8219 10 21.5248 10C26.2267 10 28.5787 10 30.0393 11.391C31.4998 12.782 31.4998 15.021 31.4998 19.5C31.4998 23.978 31.4998 26.218 30.0393 27.609C28.5787 29 26.2278 29 21.5248 29C16.8229 29 14.4709 29 13.0104 27.609C11.5498 26.218 11.5498 23.979 11.5498 19.5Z" stroke="white" stroke-width="1.5" stroke-linecap="round" stroke-linejoin="round"/>
<path d="M27.3082 14H27.2977M26.2498 19.5C26.2498 20.6935 25.752 21.8381 24.8659 22.682C23.9798 23.5259 22.778 24 21.5248 24C20.2717 24 19.0698 23.5259 18.1837 22.682C17.2976 21.8381 16.7998 20.6935 16.7998 19.5C16.7998 18.3065 17.2976 17.1619 18.1837 16.318C19.0698 15.4741 20.2717 15 21.5248 15C22.778 15 23.9798 15.4741 24.8659 16.318C25.752 17.1619 26.2498 18.3065 26.2498 19.5Z" stroke="white" stroke-width="1.5" stroke-linecap="round" stroke-linejoin="round"/>
</g>
<defs>
<clipPath id="clip0_32_1253">
<rect width="42" height="40" rx="20" fill="white"/>
</clipPath>
</defs>
</svg>
