<svg width="100" height="100" viewBox="0 0 100 100" fill="none" xmlns="http://www.w3.org/2000/svg">
<rect width="100" height="100" rx="20" fill="#ECEAF8"/>
<g clip-path="url(#clip0_201_178)">
<path d="M31.1375 25.0625C31.4896 24.6509 31.9266 24.3204 32.4186 24.0938C32.9106 23.8673 33.4458 23.75 33.9875 23.75H66.0125C66.5542 23.75 67.0894 23.8673 67.5814 24.0938C68.0734 24.3204 68.5104 24.6509 68.8625 25.0625L78.6462 36.4775C79.5198 37.4969 80 38.795 80 40.1375V41.0938C80.0002 42.9499 79.4205 44.7598 78.3418 46.2703C77.2632 47.7809 75.7395 48.9167 73.9838 49.519C72.2281 50.1214 70.328 50.1601 68.5492 49.6298C66.7704 49.0995 65.2018 48.0266 64.0625 46.5613C63.2307 47.6331 62.1646 48.5003 60.9458 49.0963C59.727 49.6924 58.388 50.0015 57.0312 50C55.6745 50.0015 54.3355 49.6924 53.1167 49.0963C51.8979 48.5003 50.8318 47.6331 50 46.5613C49.1682 47.6331 48.1021 48.5003 46.8833 49.0963C45.6645 49.6924 44.3255 50.0015 42.9688 50C41.612 50.0015 40.273 49.6924 39.0542 49.0963C37.8354 48.5003 36.7693 47.6331 35.9375 46.5613C34.7982 48.0266 33.2296 49.0995 31.4508 49.6298C29.672 50.1601 27.7719 50.1214 26.0162 49.519C24.2605 48.9167 22.7368 47.7809 21.6582 46.2703C20.5795 44.7598 19.9998 42.9499 20 41.0938V40.1375C20 38.795 20.4802 37.4969 21.3538 36.4775L31.1375 25.0625ZM37.8125 41.0938C37.8125 42.4613 38.3557 43.7728 39.3227 44.7398C40.2897 45.7068 41.6012 46.25 42.9688 46.25C44.3363 46.25 45.6478 45.7068 46.6148 44.7398C47.5818 43.7728 48.125 42.4613 48.125 41.0938C48.125 40.5965 48.3225 40.1196 48.6742 39.7679C49.0258 39.4163 49.5027 39.2188 50 39.2188C50.4973 39.2188 50.9742 39.4163 51.3258 39.7679C51.6775 40.1196 51.875 40.5965 51.875 41.0938C51.875 42.4613 52.4182 43.7728 53.3852 44.7398C54.3522 45.7068 55.6637 46.25 57.0312 46.25C58.3988 46.25 59.7103 45.7068 60.6773 44.7398C61.6443 43.7728 62.1875 42.4613 62.1875 41.0938C62.1875 40.5965 62.385 40.1196 62.7367 39.7679C63.0883 39.4163 63.5652 39.2188 64.0625 39.2188C64.5598 39.2188 65.0367 39.4163 65.3883 39.7679C65.74 40.1196 65.9375 40.5965 65.9375 41.0938C65.9375 42.4613 66.4807 43.7728 67.4477 44.7398C68.4147 45.7068 69.7262 46.25 71.0938 46.25C72.4613 46.25 73.7728 45.7068 74.7398 44.7398C75.7068 43.7728 76.25 42.4613 76.25 41.0938V40.1375C76.25 39.6906 76.0904 39.2584 75.8 38.9188L66.0125 27.5H33.9875L24.2 38.9188C23.9096 39.2584 23.75 39.6906 23.75 40.1375V41.0938C23.75 42.4613 24.2932 43.7728 25.2602 44.7398C26.2272 45.7068 27.5387 46.25 28.9062 46.25C30.2738 46.25 31.5853 45.7068 32.5523 44.7398C33.5193 43.7728 34.0625 42.4613 34.0625 41.0938C34.0625 40.5965 34.26 40.1196 34.6117 39.7679C34.9633 39.4163 35.4402 39.2188 35.9375 39.2188C36.4348 39.2188 36.9117 39.4163 37.2633 39.7679C37.615 40.1196 37.8125 40.5965 37.8125 41.0938ZM25.625 51.875C26.1223 51.875 26.5992 52.0725 26.9508 52.4242C27.3025 52.7758 27.5 53.2527 27.5 53.75V76.25H31.25V57.5C31.25 56.5054 31.6451 55.5516 32.3483 54.8484C33.0516 54.1451 34.0054 53.75 35 53.75H46.25C47.2446 53.75 48.1984 54.1451 48.9016 54.8484C49.6049 55.5516 50 56.5054 50 57.5V76.25H72.5V53.75C72.5 53.2527 72.6975 52.7758 73.0492 52.4242C73.4008 52.0725 73.8777 51.875 74.375 51.875C74.8723 51.875 75.3492 52.0725 75.7008 52.4242C76.0525 52.7758 76.25 53.2527 76.25 53.75V76.25H78.125C78.6223 76.25 79.0992 76.4475 79.4508 76.7992C79.8025 77.1508 80 77.6277 80 78.125C80 78.6223 79.8025 79.0992 79.4508 79.4508C79.0992 79.8025 78.6223 80 78.125 80H21.875C21.3777 80 20.9008 79.8025 20.5492 79.4508C20.1975 79.0992 20 78.6223 20 78.125C20 77.6277 20.1975 77.1508 20.5492 76.7992C20.9008 76.4475 21.3777 76.25 21.875 76.25H23.75V53.75C23.75 53.2527 23.9475 52.7758 24.2992 52.4242C24.6508 52.0725 25.1277 51.875 25.625 51.875ZM35 76.25H46.25V57.5H35V76.25ZM53.75 57.5C53.75 56.5054 54.1451 55.5516 54.8484 54.8484C55.5516 54.1451 56.5054 53.75 57.5 53.75H65C65.9946 53.75 66.9484 54.1451 67.6516 54.8484C68.3549 55.5516 68.75 56.5054 68.75 57.5V68.75C68.75 69.7446 68.3549 70.6984 67.6516 71.4016C66.9484 72.1049 65.9946 72.5 65 72.5H57.5C56.5054 72.5 55.5516 72.1049 54.8484 71.4016C54.1451 70.6984 53.75 69.7446 53.75 68.75V57.5ZM65 57.5H57.5V68.75H65V57.5Z" fill="#F8F8F8"/>
</g>
<defs>
<clipPath id="clip0_201_178">
<rect width="60" height="60" fill="white" transform="translate(20 20)"/>
</clipPath>
</defs>
</svg>
