<svg width="100" height="100" viewBox="0 0 100 100" fill="none" xmlns="http://www.w3.org/2000/svg">
<rect width="100" height="100" rx="20" fill="#FAE8CF"/>
<g clip-path="url(#clip0_201_174)">
<path fill-rule="evenodd" clip-rule="evenodd" d="M51.9905 61.8625C96.3612 31.2394 63.3249 7.8028 49.9999 21.5056C36.6708 7.8028 3.6346 31.2394 48.0093 61.8625L47.0587 63.7637C46.9989 63.8832 46.9633 64.0133 46.9538 64.1466C46.9443 64.2799 46.9612 64.4137 47.0035 64.5405C47.0888 64.7965 47.2723 65.0081 47.5137 65.1287C47.755 65.2494 48.0344 65.2693 48.2904 65.1839C48.5464 65.0986 48.758 64.9151 48.8787 64.6737L49.0412 64.3487C49.0777 65.0394 49.1387 65.6284 49.2483 66.1769C49.5246 67.5744 50.0933 68.7037 51.0683 70.6537L51.1212 70.7675C51.9824 72.4819 51.8605 74.2206 51.3243 75.8294C50.7758 77.4625 49.8374 78.8803 49.1549 79.904C49.0051 80.1282 48.9505 80.4026 49.0031 80.6669C49.0557 80.9313 49.2111 81.164 49.4352 81.3137C49.6593 81.4635 49.9338 81.5181 50.1981 81.4655C50.4625 81.413 50.6951 81.2575 50.8449 81.0334L50.8612 81.005C51.5355 79.9975 52.6121 78.3806 53.2499 76.4753C53.8999 74.5294 54.1112 72.2056 52.9412 69.8575C51.893 67.7653 51.4583 66.8837 51.239 65.7787C51.1604 65.3916 51.1102 64.9992 51.0887 64.6047L51.1212 64.6737C51.2418 64.9151 51.4534 65.0986 51.7094 65.1839C51.9654 65.2693 52.2448 65.2494 52.4862 65.1287C52.7275 65.0081 52.911 64.7965 52.9964 64.5405C53.0817 64.2845 53.0618 64.0051 52.9412 63.7637L51.9905 61.8625ZM44.8243 22.6553C40.0833 20.1772 33.4493 22.0784 30.7924 27.2662C29.8296 29.1472 29.3299 31.6537 29.9718 34.7819C30.1952 35.8787 31.869 35.5822 32.1127 34.4934C33.2705 29.3909 36.8943 24.4915 44.2555 24.2234C45.2062 24.1909 45.6693 23.094 44.8243 22.6553Z" fill="#F8F8F8"/>
</g>
<defs>
<clipPath id="clip0_201_174">
<rect width="65" height="65" fill="white" transform="translate(17.5 17.5)"/>
</clipPath>
</defs>
</svg>
