<svg width="100" height="100" viewBox="0 0 100 100" fill="none" xmlns="http://www.w3.org/2000/svg">
<rect width="100" height="100" rx="20" fill="#ECE3F4"/>
<g clip-path="url(#clip0_201_179)">
<path d="M80 50C80 57.9565 76.8393 65.5871 71.2132 71.2132C65.5871 76.8393 57.9565 80 50 80C42.0435 80 34.4129 76.8393 28.7868 71.2132C23.1607 65.5871 20 57.9565 20 50C20 42.0435 23.1607 34.4129 28.7868 28.7868C34.4129 23.1607 42.0435 20 50 20C57.9565 20 65.5871 23.1607 71.2132 28.7868C76.8393 34.4129 80 42.0435 80 50ZM40.61 42.6237H43.7038C44.2213 42.6237 44.6337 42.2 44.7012 41.6862C45.0387 39.2262 46.7262 37.4338 49.7337 37.4338C52.3062 37.4338 54.6613 38.72 54.6613 41.8137C54.6613 44.195 53.2587 45.29 51.0425 46.955C48.5187 48.7888 46.52 50.93 46.6625 54.4063L46.6737 55.22C46.6777 55.466 46.7782 55.7007 46.9536 55.8732C47.129 56.0458 47.3652 56.1425 47.6112 56.1425H50.6525C50.9011 56.1425 51.1396 56.0437 51.3154 55.8679C51.4912 55.6921 51.59 55.4536 51.59 55.205V54.8112C51.59 52.1187 52.6138 51.335 55.3775 49.2387C57.6613 47.5025 60.0425 45.575 60.0425 41.5288C60.0425 35.8625 55.2575 33.125 50.0188 33.125C45.2675 33.125 40.0625 35.3375 39.7063 41.6975C39.7011 41.8186 39.7208 41.9395 39.7641 42.0527C39.8074 42.1659 39.8734 42.2691 39.9581 42.3558C40.0427 42.4426 40.1442 42.5111 40.2563 42.5572C40.3685 42.6032 40.4888 42.6259 40.61 42.6237ZM49.3288 66.785C51.6163 66.785 53.1875 65.3075 53.1875 63.3087C53.1875 61.2387 51.6125 59.7838 49.3288 59.7838C47.1388 59.7838 45.545 61.2387 45.545 63.3087C45.545 65.3075 47.135 66.785 49.3288 66.785Z" fill="#F8F8F8"/>
</g>
<defs>
<clipPath id="clip0_201_179">
<rect width="60" height="60" fill="white" transform="translate(20 20)"/>
</clipPath>
</defs>
</svg>
