<svg width="100" height="100" viewBox="0 0 100 100" fill="none" xmlns="http://www.w3.org/2000/svg">
<rect width="100" height="100" rx="20" fill="#F5E7E7"/>
<g clip-path="url(#clip0_201_172)">
<mask id="mask0_201_172" style="mask-type:luminance" maskUnits="userSpaceOnUse" x="39" y="25" width="52" height="49">
<path d="M90.0013 25.999H39.6982V73.9995H90.0013V25.999Z" fill="white"/>
</mask>
<g mask="url(#mask0_201_172)">
<path d="M65.4564 36.499C65.4564 36.1012 65.2908 35.7197 64.996 35.4384C64.7012 35.1571 64.3014 34.999 63.8844 34.999C63.4675 34.999 63.0677 35.1571 62.7729 35.4384C62.4781 35.7197 62.3125 36.1012 62.3125 36.499V52.9992C62.3126 53.2636 62.3859 53.5233 62.525 53.7519C62.6642 53.9806 62.8642 54.1701 63.1047 54.3012L74.1086 60.3013C74.4698 60.4875 74.8928 60.5316 75.2873 60.4241C75.6819 60.3165 76.017 60.0659 76.2207 59.7259C76.4243 59.3858 76.4807 58.9832 76.377 58.6041C76.274 58.2251 76.0195 57.8996 75.668 57.6972L65.4564 52.1292V36.499Z" fill="#F8F8F8"/>
<path d="M63.6985 73.9995C70.0635 73.9995 76.1682 71.4709 80.6693 66.97C85.1703 62.4691 87.6987 56.3645 87.6987 49.9993C87.6987 43.634 85.1703 37.5294 80.6693 33.0285C76.1682 28.5276 70.0635 25.999 63.6985 25.999C57.3332 25.999 51.2287 28.5276 46.7278 33.0285C42.2268 37.5294 39.6982 43.634 39.6982 49.9993C39.6982 56.3645 42.2268 62.4691 46.7278 66.97C51.2287 71.4709 57.3332 73.9995 63.6985 73.9995ZM84.6984 49.9993C84.6984 55.5689 82.4863 60.9103 78.548 64.8486C74.6096 68.7869 69.2683 70.9995 63.6985 70.9995C58.1289 70.9995 52.7874 68.7869 48.8491 64.8486C44.9108 60.9103 42.6983 55.5689 42.6983 49.9993C42.6983 44.4296 44.9108 39.0882 48.8491 35.1499C52.7874 31.2116 58.1289 28.9991 63.6985 28.9991C69.2683 28.9991 74.6096 31.2116 78.548 35.1499C82.4863 39.0882 84.6984 44.4296 84.6984 49.9993Z" fill="#F8F8F8"/>
</g>
<path d="M33.334 35.8311H38.7885" stroke="#F8F8F8" stroke-width="2.1506" stroke-linecap="round"/>
<path d="M33.0303 64.1689H38.4848" stroke="#F8F8F8" stroke-width="2.1506" stroke-linecap="round"/>
<path d="M11.2119 49.71H33.9392" stroke="#F8F8F8" stroke-width="2.1506" stroke-linecap="round"/>
<path d="M22.1211 42.7705H23.9393" stroke="#F8F8F8" stroke-width="2.1506" stroke-linecap="round"/>
<path d="M28.4844 42.7705H36.0601" stroke="#F8F8F8" stroke-width="2.1506" stroke-linecap="round"/>
<path d="M22.1211 57.2295H23.9393" stroke="#F8F8F8" stroke-width="2.1506" stroke-linecap="round"/>
<path d="M28.4844 57.2295H36.0601" stroke="#F8F8F8" stroke-width="2.1506" stroke-linecap="round"/>
</g>
<defs>
<clipPath id="clip0_201_172">
<rect width="80" height="48.0005" fill="white" transform="translate(10 26)"/>
</clipPath>
</defs>
</svg>
