<svg width="100" height="100" viewBox="0 0 100 100" fill="none" xmlns="http://www.w3.org/2000/svg">
<rect width="100" height="100" rx="20" fill="#F2E1E5"/>
<g clip-path="url(#clip0_201_173)">
<path d="M60.7029 46.7979C60.8775 46.9721 61.0161 47.179 61.1106 47.4068C61.2051 47.6346 61.2538 47.8788 61.2538 48.1254C61.2538 48.372 61.2051 48.6163 61.1106 48.844C61.0161 49.0718 60.8775 49.2788 60.7029 49.4529L49.4529 60.7029C49.2787 60.8775 49.0718 61.0161 48.844 61.1106C48.6162 61.2051 48.372 61.2538 48.1254 61.2538C47.8788 61.2538 47.6346 61.2051 47.4068 61.1106C47.179 61.0161 46.9721 60.8775 46.7979 60.7029L41.1729 55.0779C40.9986 54.9036 40.8603 54.6966 40.766 54.4689C40.6716 54.2411 40.623 53.997 40.623 53.7504C40.623 53.5039 40.6716 53.2598 40.766 53.032C40.8603 52.8042 40.9986 52.5973 41.1729 52.4229C41.525 52.0708 42.0025 51.8731 42.5004 51.8731C42.747 51.8731 42.9911 51.9216 43.2189 52.016C43.4466 52.1103 43.6536 52.2486 43.8279 52.4229L48.1254 56.7242L58.0479 46.7979C58.2221 46.6233 58.429 46.4848 58.6568 46.3902C58.8846 46.2957 59.1288 46.2471 59.3754 46.2471C59.622 46.2471 59.8662 46.2957 60.094 46.3902C60.3218 46.4848 60.5287 46.6233 60.7029 46.7979Z" fill="#F8F8F8"/>
<path d="M33.125 20C33.6223 20 34.0992 20.1975 34.4508 20.5492C34.8025 20.9008 35 21.3777 35 21.875V23.75H65V21.875C65 21.3777 65.1975 20.9008 65.5492 20.5492C65.9008 20.1975 66.3777 20 66.875 20C67.3723 20 67.8492 20.1975 68.2008 20.5492C68.5525 20.9008 68.75 21.3777 68.75 21.875V23.75H72.5C74.4891 23.75 76.3968 24.5402 77.8033 25.9467C79.2098 27.3532 80 29.2609 80 31.25V72.5C80 74.4891 79.2098 76.3968 77.8033 77.8033C76.3968 79.2098 74.4891 80 72.5 80H27.5C25.5109 80 23.6032 79.2098 22.1967 77.8033C20.7902 76.3968 20 74.4891 20 72.5V31.25C20 29.2609 20.7902 27.3532 22.1967 25.9467C23.6032 24.5402 25.5109 23.75 27.5 23.75H31.25V21.875C31.25 21.3777 31.4475 20.9008 31.7992 20.5492C32.1508 20.1975 32.6277 20 33.125 20ZM23.75 35V72.5C23.75 73.4946 24.1451 74.4484 24.8483 75.1516C25.5516 75.8549 26.5054 76.25 27.5 76.25H72.5C73.4946 76.25 74.4484 75.8549 75.1516 75.1516C75.8549 74.4484 76.25 73.4946 76.25 72.5V35H23.75Z" fill="#F8F8F8"/>
</g>
<defs>
<clipPath id="clip0_201_173">
<rect width="60" height="60" fill="white" transform="translate(20 20)"/>
</clipPath>
</defs>
</svg>
