<svg width="100" height="100" viewBox="0 0 100 100" fill="none" xmlns="http://www.w3.org/2000/svg">
<rect width="100" height="100" rx="20" fill="#DAEAE0"/>
<rect x="11" y="11" width="78" height="78" rx="4" stroke="#F8F8F8" stroke-width="2"/>
<path d="M46.25 70C46.25 70 42.5 70 42.5 66.6667C42.5 63.3333 46.25 53.3333 61.25 53.3333C76.25 53.3333 80 63.3333 80 66.6667C80 70 76.25 70 76.25 70H46.25ZM61.25 50C64.2337 50 67.0952 48.9464 69.205 47.0711C71.3147 45.1957 72.5 42.6522 72.5 40C72.5 37.3478 71.3147 34.8043 69.205 32.9289C67.0952 31.0536 64.2337 30 61.25 30C58.2663 30 55.4048 31.0536 53.295 32.9289C51.1853 34.8043 50 37.3478 50 40C50 42.6522 51.1853 45.1957 53.295 47.0711C55.4048 48.9464 58.2663 50 61.25 50ZM39.56 70C39.0043 68.9593 38.7271 67.8184 38.75 66.6667C38.75 62.15 41.3 57.5 46.01 54.2667C43.6594 53.6215 41.2099 53.3066 38.75 53.3333C23.75 53.3333 20 63.3333 20 66.6667C20 70 23.75 70 23.75 70H39.56ZM36.875 50C39.3614 50 41.746 49.122 43.5041 47.5592C45.2623 45.9964 46.25 43.8768 46.25 41.6667C46.25 39.4565 45.2623 37.3369 43.5041 35.7741C41.746 34.2113 39.3614 33.3333 36.875 33.3333C34.3886 33.3333 32.004 34.2113 30.2459 35.7741C28.4877 37.3369 27.5 39.4565 27.5 41.6667C27.5 43.8768 28.4877 45.9964 30.2459 47.5592C32.004 49.122 34.3886 50 36.875 50Z" fill="#F8F8F8"/>
</svg>
