<svg width="100" height="100" viewBox="0 0 100 100" fill="none" xmlns="http://www.w3.org/2000/svg">
<rect width="100" height="100" rx="20" fill="#D9E8E5"/>
<path d="M53.3301 20.3905L55.3302 22.4278C57.0386 24.168 59.4893 24.9643 61.8943 24.5606L64.7099 24.088C67.2849 23.6558 69.7135 25.4203 70.0982 28.0028L70.5188 30.8266C70.878 33.2387 72.3926 35.3233 74.5756 36.4104L77.1313 37.683C79.4685 38.8469 80.3962 41.7019 79.1894 44.0173L77.8699 46.549C76.7427 48.7116 76.7427 51.2884 77.8699 53.451L79.1894 55.9827C80.3962 58.2981 79.4685 61.1531 77.1313 62.317L74.5756 63.5896C72.3926 64.6767 70.878 66.7613 70.5188 69.1734L70.0982 71.9972C69.7135 74.5797 67.2849 76.3442 64.7099 75.912L61.8943 75.4394C59.4893 75.0357 57.0387 75.832 55.3302 77.5722L53.3301 79.6095C51.501 81.4727 48.499 81.4727 46.6699 79.6095L44.6698 77.5722C42.9614 75.832 40.5107 75.0357 38.1057 75.4394L35.2901 75.912C32.7151 76.3442 30.2865 74.5797 29.9018 71.9972L29.4812 69.1734C29.122 66.7613 27.6074 64.6767 25.4244 63.5896L22.8687 62.317C20.5315 61.1531 19.6038 58.2981 20.8106 55.9827L22.1301 53.451C23.2573 51.2884 23.2573 48.7116 22.1301 46.549L20.8106 44.0173C19.6038 41.7019 20.5315 38.8469 22.8687 37.683L25.4244 36.4104C27.6074 35.3233 29.1219 33.2387 29.4812 30.8266L29.9018 28.0028C30.2865 25.4203 32.7151 23.6558 35.2901 24.088L38.1057 24.5606C40.5107 24.9643 42.9614 24.168 44.6698 22.4278L46.6699 20.3905C48.499 18.5273 51.501 18.5273 53.3301 20.3905Z" stroke="#F8F8F8" stroke-width="2.8"/>
<path d="M63.5332 36.9336L35.9999 63.0669" stroke="#F8F8F8" stroke-width="2.8" stroke-linecap="round"/>
<circle cx="43" cy="39.7334" r="5.36667" stroke="#F8F8F8" stroke-width="3.26667"/>
<circle cx="56.5332" cy="60.7334" r="5.36667" stroke="#F8F8F8" stroke-width="3.26667"/>
</svg>
