<svg width="115" height="124" viewBox="0 0 115 124" fill="none" xmlns="http://www.w3.org/2000/svg">
<g clip-path="url(#clip0_425_209)">
<path d="M46.3274 115.637L45.0531 114.408L46.5094 100.119C46.8735 96.7057 46.3729 93.8841 45.3717 93.8386H45.3262C44.3705 93.7476 43.2783 96.4781 42.9597 99.8458L41.458 114.591L40.4113 115.182C37.0436 117.139 34.7682 119.232 35.3143 119.915L35.3598 119.961C35.8604 120.552 38.2724 119.824 41.0939 118.368C40.9574 121.189 41.458 123.328 42.3226 123.374H42.3681C43.2328 123.419 44.1885 121.28 44.598 118.413C46.9645 120.461 49.2399 121.735 49.877 121.235L49.9225 121.189C50.6507 120.734 49.0579 118.231 46.3274 115.637Z" fill="#FF931E"/>
<path d="M73.678 115.091L72.6313 114.454L71.4026 99.8001C71.1295 96.387 70.0828 93.793 69.1272 93.8385H69.0817C68.126 93.884 67.5344 96.569 67.8529 99.9821L69.0362 114.135L67.7164 115.318C64.9404 117.821 63.3021 120.324 64.0302 120.871L64.0757 120.916C64.7128 121.417 66.9883 120.188 69.4002 118.186C69.7643 121.098 70.6745 123.237 71.5846 123.191H71.6301C72.4948 123.146 72.9954 121.007 72.9499 118.231C75.7714 119.733 78.1834 120.506 78.684 119.915L78.7295 119.869C79.2756 119.232 77.0457 117.093 73.678 115.091Z" fill="#FF931E"/>
<path d="M99.9816 4.00475C97.3421 1.77483 85.3278 7.09933 85.3278 7.09933C85.3278 7.09933 71.6298 0 55.6563 0C39.6828 0 28.6242 7.09933 28.6242 7.09933C28.6242 7.09933 14.8807 0.455085 12.1956 2.63949C9.55616 4.86941 14.8807 23.2093 14.8351 30.1266C14.7896 52.5168 -2.003 108.174 57.8407 108.583C117.684 109.038 99.4355 52.1983 98.6163 30.1266C98.4343 23.6189 102.667 6.18916 99.9816 4.00475Z" fill="#ABBC86"/>
<path d="M14.8811 30.1722C14.8811 29.9901 14.8811 29.8081 14.8811 29.6261C18.5218 22.2537 26.1217 17.1567 34.9503 17.1567C45.3718 17.1567 54.1094 24.2561 56.5669 33.9039C59.0698 24.2561 67.8075 17.1567 78.1834 17.1567C87.3761 17.1567 95.2491 22.7088 98.7077 30.6273C98.8898 34.2679 99.4814 38.8188 100.119 43.8702C98.0706 54.1096 89.0599 61.8461 78.1834 61.8461C67.762 61.8461 59.0243 54.7468 56.5669 45.099C54.0639 54.7468 45.3263 61.8461 34.9503 61.8461C24.984 61.8461 16.5649 55.3384 13.6523 46.3277C14.244 40.093 14.8811 34.4955 14.8811 30.1722Z" fill="#497248"/>
<path d="M55.8839 65.168C74.861 65.168 90.2428 80.1403 90.2428 98.6622C90.2428 98.7988 90.2428 98.9808 90.2428 99.1173C83.5531 105.033 73.3137 108.765 57.8863 108.629C39.5009 108.492 28.3513 103.122 21.707 95.1581C23.5274 78.3199 38.1356 65.168 55.8839 65.168Z" fill="#497248"/>
<path d="M79.5936 52.7897C88.4155 52.7897 95.5671 45.6382 95.5671 36.8163C95.5671 27.9943 88.4155 20.8428 79.5936 20.8428C70.7717 20.8428 63.6201 27.9943 63.6201 36.8163C63.6201 45.6382 70.7717 52.7897 79.5936 52.7897Z" fill="white"/>
<path d="M33.494 52.7897C42.3159 52.7897 49.4675 45.6382 49.4675 36.8163C49.4675 27.9943 42.3159 20.8428 33.494 20.8428C24.6721 20.8428 17.5205 27.9943 17.5205 36.8163C17.5205 45.6382 24.6721 52.7897 33.494 52.7897Z" fill="white"/>
<path d="M51.2422 47.1469C55.2014 42.505 61.4816 45.4176 61.8912 47.1469C62.3008 48.8762 56.1116 57.6138 56.1116 57.6138C56.1116 57.6138 51.2422 48.9217 51.2422 47.1469Z" fill="#E7B343"/>
<path d="M90.1517 76.3179C92.6092 66.0785 96.2499 61.6642 99.1624 59.9804C104.487 57.2044 110.449 70.8114 112.86 79.276C115.591 88.8328 115.636 97.2063 112.997 97.98C111.086 98.5716 108.31 95.0219 105.852 89.4244C104.896 95.6136 103.122 99.7093 101.074 99.3908C99.1624 99.1177 97.5241 94.8854 96.705 88.8783C94.5205 94.4303 92.0176 97.798 90.2428 96.9333C87.7853 95.7956 87.6943 86.5574 90.1517 76.3179Z" fill="#39553F"/>
<path d="M25.3479 76.9092C23.2545 66.6243 19.7504 62.0279 16.8833 60.2531C11.6954 57.295 5.23316 70.6745 2.54816 79.0936C-0.500908 88.5139 -0.864976 96.8874 1.77452 97.7976C3.64037 98.4347 6.55291 95.0216 9.1924 89.515C9.92054 95.7497 11.6044 99.891 13.6067 99.6634C15.5636 99.4359 17.2929 95.2946 18.2941 89.333C20.2965 94.9761 22.7084 98.3892 24.4833 97.6156C27.0772 96.4323 27.4413 87.1941 25.3479 76.9092Z" fill="#39553F"/>
<path d="M56.7485 85.1464H56.703C54.0635 85.1464 52.0611 83.5081 51.515 80.9596C51.424 80.459 51.6516 80.004 52.0611 79.8674C52.4707 79.7309 52.8803 80.095 53.0168 80.5501C53.4264 82.6435 55.2467 83.3716 56.703 83.4171C58.3413 83.4171 60.2527 82.5524 60.7078 80.5501C60.7988 80.0495 61.2539 79.7764 61.6634 79.8674C62.073 80.004 62.3461 80.4135 62.2095 80.9141C61.5724 83.9177 59.0239 85.1464 56.7485 85.1464Z" fill="#ABBC86"/>
<path d="M40.2749 85.1464H40.2294C37.5899 85.1464 35.5875 83.5081 35.0414 80.9596C34.9504 80.459 35.1779 80.004 35.5875 79.8674C35.9971 79.7309 36.4067 80.095 36.5432 80.5501C36.9528 82.6435 38.7731 83.3716 40.2294 83.4171C41.8677 83.4171 43.779 82.5524 44.2341 80.5501C44.3251 80.0495 44.7802 79.7764 45.1898 79.8674C45.5994 80.004 45.8724 80.4135 45.7359 80.9141C45.0988 83.9177 42.5503 85.1464 40.2749 85.1464Z" fill="#ABBC86"/>
<path d="M73.269 85.1464H73.2235C70.584 85.1464 68.5816 83.5081 68.0355 80.9596C67.9445 80.459 68.1721 80.004 68.5816 79.8674C68.9912 79.7309 69.4008 80.095 69.5373 80.5501C69.9469 82.6435 71.7672 83.3716 73.2235 83.4171C74.8618 83.4171 76.7732 82.5524 77.2283 80.5501C77.3193 80.0495 77.7744 79.7764 78.1839 79.8674C78.5935 80.004 78.8666 80.4135 78.73 80.9141C78.0474 83.9177 75.4989 85.1464 73.269 85.1464Z" fill="#ABBC86"/>
<path d="M64.7583 98.3441H64.7128C62.0733 98.3441 60.0709 96.6148 59.5248 94.0663C59.4338 93.5657 59.6613 93.0651 60.0709 92.9286C60.4805 92.792 60.8901 93.1106 61.0266 93.6112C61.4362 95.7046 63.2565 96.4327 64.7128 96.4327C66.3511 96.4327 68.2624 95.5681 68.7175 93.5657C68.8085 93.0651 69.2636 92.792 69.6732 92.8831C70.0828 93.0196 70.3558 93.5657 70.2193 94.0208C69.5367 97.0243 67.0337 98.3441 64.7583 98.3441Z" fill="#ABBC86"/>
<path d="M48.7846 98.3441H48.7391C46.0996 98.3441 44.0973 96.6148 43.5512 94.0663C43.4602 93.5657 43.6877 93.0651 44.0973 92.9286C44.5069 92.792 44.9164 93.1106 45.053 93.6112C45.4625 95.7046 47.2829 96.4327 48.7391 96.4327C50.3774 96.4327 52.2888 95.5681 52.7439 93.5657C52.8349 93.0651 53.29 92.792 53.6996 92.8831C54.1091 93.0196 54.3822 93.5657 54.2457 94.0208C53.563 97.0243 51.0601 98.3441 48.7846 98.3441Z" fill="#ABBC86"/>
</g>
<defs>
<clipPath id="clip0_425_209">
<rect width="115" height="123.419" fill="white"/>
</clipPath>
</defs>
</svg>
