<svg width="34" height="34" viewBox="0 0 34 34" fill="none" xmlns="http://www.w3.org/2000/svg">
<path d="M30.1896 9.74448L24.2556 3.80909C24.0582 3.61172 23.8239 3.45515 23.5661 3.34833C23.3082 3.2415 23.0319 3.18652 22.7528 3.18652C22.4737 3.18652 22.1973 3.2415 21.9395 3.34833C21.6816 3.45515 21.4473 3.61172 21.25 3.80909L4.8729 20.1875C4.67472 20.3841 4.51759 20.6182 4.41066 20.8761C4.30373 21.1339 4.24912 21.4105 4.25001 21.6896V27.625C4.25001 28.1886 4.47389 28.7291 4.87241 29.1276C5.27092 29.5261 5.81143 29.75 6.37501 29.75H12.3104C12.5896 29.7509 12.8661 29.6963 13.124 29.5894C13.3819 29.4824 13.6159 29.3253 13.8125 29.1271L30.1896 12.75C30.387 12.5527 30.5436 12.3184 30.6504 12.0606C30.7572 11.8027 30.8122 11.5264 30.8122 11.2473C30.8122 10.9682 30.7572 10.6918 30.6504 10.4339C30.5436 10.1761 30.387 9.94181 30.1896 9.74448ZM6.81462 21.25L18.0625 10.0021L20.2792 12.2188L9.03126 23.4653L6.81462 21.25ZM6.37501 23.8146L10.1854 27.625H6.37501V23.8146ZM12.75 27.1854L10.5334 24.9688L21.7813 13.7209L23.9979 15.9375L12.75 27.1854ZM25.5 14.4354L19.5646 8.50003L22.7521 5.31253L28.6875 11.2466L25.5 14.4354Z" fill="white"/>
</svg>
