<svg width="28" height="31" viewBox="0 0 28 31" fill="none" xmlns="http://www.w3.org/2000/svg">
<path d="M17.1694 13.3667C16.2304 14.0023 15.1275 14.3409 14 14.3409C12.4884 14.3409 11.0366 13.7327 9.96474 12.6469C8.89253 11.5608 8.28846 10.0856 8.28846 8.54546C8.28846 7.39709 8.62467 6.27528 9.2535 5.32196C9.88225 4.36874 10.7749 3.62728 11.8175 3.18983C12.8599 2.75243 14.0064 2.63814 15.1124 2.861C16.2185 3.08386 17.2358 3.63422 18.0353 4.44402C18.8348 5.25392 19.3803 6.28696 19.6014 7.41301C19.8226 8.53912 19.709 9.70625 19.2755 10.7664C18.842 11.8265 18.1086 12.731 17.1694 13.3667ZM2.75 24.4416C2.75 22.4029 4.39664 20.7238 6.83324 19.5068C9.2306 18.3095 12.1161 17.711 14 17.711C15.8839 17.711 18.7694 18.3095 21.1668 19.5068C23.6034 20.7238 25.25 22.4029 25.25 24.4416V27.4318H2.75V24.4416Z" stroke="#555555" stroke-width="1.5"/>
</svg>
