<svg width="22" height="25" viewBox="0 0 22 25" fill="none" xmlns="http://www.w3.org/2000/svg">
<path d="M10 17H12C12.5304 17 13.0391 16.7893 13.4142 16.4142C13.7893 16.0391 14 15.5304 14 15C14 14.4696 13.7893 13.9609 13.4142 13.5858C13.0391 13.2107 12.5304 13 12 13H9C8.4 13 7.9 13.2 7.6 13.6L2 19" stroke="#1D1D1D" stroke-linecap="round" stroke-linejoin="round"/>
<path d="M6 23L7.6 21.6C7.9 21.2 8.4 21 9 21H13C14.1 21 15.1 20.6 15.8 19.8L20.4 15.4C20.7859 15.0354 21.0111 14.5323 21.0261 14.0016C21.0411 13.4709 20.8447 12.9559 20.48 12.57C20.1153 12.1841 19.6123 11.9589 19.0816 11.9439C18.5508 11.9289 18.0359 12.1254 17.65 12.49L13.45 16.39M1 18L7 24" stroke="#1D1D1D" stroke-linecap="round" stroke-linejoin="round"/>
<g clip-path="url(#clip0_326_393)">
<path d="M11.9854 5.95645C12.2367 6.09355 12.5071 6.16211 12.7966 6.16211C13.3983 6.16211 13.6992 5.73936 13.6992 4.89385C13.6992 4.17529 13.3666 3.81602 12.7014 3.81602C12.4145 3.81602 12.1758 3.83379 11.9854 3.86934V5.95645ZM10.9761 3.16475C11.5067 3.05557 12.0679 3.00098 12.6595 3.00098C14.0179 3.00098 14.6971 3.63447 14.6971 4.90146C14.6971 6.30049 14.0648 7 12.8004 7C12.5313 7 12.2596 6.93652 11.9854 6.80957V8.44727H10.9761V3.16475Z" fill="#497248"/>
</g>
<rect x="7.5" y="0.5" width="10" height="10" rx="5" stroke="#1D1D1D"/>
<defs>
<clipPath id="clip0_326_393">
<rect x="7" width="11" height="11" rx="5.5" fill="white"/>
</clipPath>
</defs>
</svg>
