<svg width="25" height="24" viewBox="0 0 25 24" fill="none" xmlns="http://www.w3.org/2000/svg">
<path fill-rule="evenodd" clip-rule="evenodd" d="M12.1992 2C6.67637 2 2.19922 6.47715 2.19922 12C2.19922 13.5113 2.53449 14.9443 3.1347 16.2287L2.26646 20.3995C2.19306 20.7521 2.50527 21.0643 2.85787 20.9909L6.51623 20.2293C8.13004 21.3459 10.0882 22 12.1992 22C17.7221 22 22.1992 17.5228 22.1992 12C22.1992 6.47715 17.7221 2 12.1992 2Z" fill="#497248"/>
<path d="M11.0335 14.7935V14.655C11.037 14.0122 11.0974 13.5008 11.2146 13.1209C11.3353 12.7409 11.5058 12.4355 11.7259 12.2047C11.9461 11.9703 12.2142 11.7555 12.5303 11.5601C12.7469 11.4252 12.9404 11.2778 13.1109 11.118C13.2849 10.9547 13.4216 10.7736 13.521 10.5747C13.6205 10.3723 13.6702 10.1468 13.6702 9.89822C13.6702 9.61768 13.6045 9.37442 13.4731 9.16846C13.3417 8.96249 13.1642 8.80269 12.9404 8.68905C12.7203 8.57542 12.4735 8.5186 12.2 8.5186C11.9479 8.5186 11.7082 8.57364 11.4809 8.68373C11.2572 8.79026 11.0708 8.95361 10.9216 9.17378C10.776 9.3904 10.6943 9.66562 10.6766 9.99942H8.78027C8.79803 9.32471 8.96138 8.76008 9.27033 8.30553C9.58283 7.85099 9.99476 7.51008 10.5061 7.2828C11.021 7.05553 11.5892 6.94189 12.2107 6.94189C12.8889 6.94189 13.4855 7.06086 14.0004 7.29878C14.5189 7.53671 14.922 7.87584 15.2096 8.31618C15.5008 8.75297 15.6464 9.27144 15.6464 9.87158C15.6464 10.2764 15.5807 10.6386 15.4493 10.9582C15.3215 11.2778 15.1386 11.5619 14.9007 11.8105C14.6627 12.0591 14.3804 12.281 14.0537 12.4763C13.7661 12.6539 13.5299 12.8386 13.3453 13.0303C13.1642 13.2221 13.0292 13.4476 12.9404 13.7068C12.8552 13.9625 12.8108 14.2785 12.8073 14.655V14.7935H11.0335ZM11.9603 18.1173C11.6407 18.1173 11.3655 18.0037 11.1347 17.7764C10.9039 17.5491 10.7884 17.2722 10.7884 16.9454C10.7884 16.6258 10.9039 16.3524 11.1347 16.1251C11.3655 15.8979 11.6407 15.7842 11.9603 15.7842C12.2764 15.7842 12.5498 15.8979 12.7806 16.1251C13.015 16.3524 13.1322 16.6258 13.1322 16.9454C13.1322 17.1621 13.0771 17.3592 12.9671 17.5367C12.8605 17.7143 12.7185 17.8563 12.5409 17.9628C12.3669 18.0658 12.1734 18.1173 11.9603 18.1173Z" fill="white"/>
</svg>
