<svg width="90" height="80" viewBox="0 0 90 80" fill="none" xmlns="http://www.w3.org/2000/svg">
<path d="M20 10H70C72.6522 10 75.1957 11.0532 77.0711 12.928C78.9464 14.8028 80 17.3455 80 19.9969V49.9874C80 52.6388 78.9464 55.1815 77.0711 57.0563C75.1957 58.9311 72.6522 59.9843 70 59.9843H40C40 59.9843 32.5 70.5 30 69.9812C27.5 69.4623 30 59.9843 30 59.9843H20C17.3478 59.9843 14.8043 58.9311 12.9289 57.0563C11.0536 55.1815 10 52.6388 10 49.9874V19.9969C10 17.3455 11.0536 14.8028 12.9289 12.928C14.8043 11.0532 17.3478 10 20 10Z" stroke="#1D1D1D" stroke-width="3"/>
<path d="M26 25H64.1" stroke="#555555" stroke-width="3" stroke-linecap="round"/>
<path d="M26 35H64.1" stroke="#555555" stroke-width="3" stroke-linecap="round"/>
<path d="M26 45H64.1" stroke="#555555" stroke-width="3" stroke-linecap="round"/>
</svg>
