<svg width="20" height="20" viewBox="0 0 20 20" fill="none" xmlns="http://www.w3.org/2000/svg">
<path d="M10.9515 1.54013L11.5229 2.12222C12.011 2.61943 12.7112 2.84693 13.3984 2.7316L14.2028 2.59657C14.9385 2.47309 15.6324 2.97722 15.7423 3.71508L15.8625 4.52189C15.9652 5.21105 16.3979 5.80666 17.0216 6.11726L17.7518 6.48087C18.4196 6.8134 18.6846 7.62911 18.3398 8.29065L17.9628 9.01401C17.6408 9.63189 17.6408 10.3681 17.9628 10.986L18.3398 11.7094C18.6846 12.3709 18.4196 13.1866 17.7518 13.5191L17.0216 13.8827C16.3979 14.1933 15.9652 14.7889 15.8625 15.4781L15.7423 16.2849C15.6324 17.0228 14.9385 17.5269 14.2028 17.4034L13.3984 17.2684C12.7112 17.1531 12.011 17.3806 11.5229 17.8778L10.9515 18.4599C10.4288 18.9922 9.57116 18.9922 9.04854 18.4599L8.47709 17.8778C7.98896 17.3806 7.28878 17.1531 6.60162 17.2684L5.79716 17.4034C5.06146 17.5269 4.36757 17.0228 4.25767 16.2849L4.13749 15.4781C4.03484 14.7889 3.60211 14.1933 2.97839 13.8827L2.24821 13.5191C1.58042 13.1866 1.31538 12.3709 1.66017 11.7094L2.03718 10.986C2.35921 10.3681 2.35922 9.63189 2.03718 9.01401L1.66017 8.29065C1.31538 7.62911 1.58042 6.8134 2.2482 6.48087L2.97839 6.11726C3.60211 5.80666 4.03484 5.21106 4.13749 4.52189L4.25767 3.71508C4.36757 2.97722 5.06146 2.47308 5.79716 2.59657L6.60162 2.7316C7.28878 2.84693 7.98896 2.61943 8.47709 2.12222L9.04854 1.54013C9.57116 1.00779 10.4288 1.00779 10.9515 1.54013Z" stroke="#F0F0F0" stroke-width="0.8"/>
<path d="M13.8662 6.2666L5.99954 13.7333" stroke="#F0F0F0" stroke-width="0.8" stroke-linecap="round"/>
<circle cx="8" cy="7.06641" r="1.53333" stroke="#F0F0F0" stroke-width="0.933333"/>
<circle cx="11.8662" cy="13.0664" r="1.53333" stroke="#F0F0F0" stroke-width="0.933333"/>
</svg>
