<svg width="16" height="16" viewBox="0 0 16 16" fill="none" xmlns="http://www.w3.org/2000/svg">
<path fill-rule="evenodd" clip-rule="evenodd" d="M5.94011 8.64586L3.69211 7.89686C1.33911 7.11286 0.162109 6.72086 0.162109 5.99986C0.162109 5.27986 1.33911 4.88686 3.69211 4.10286L12.2051 1.26486C13.8611 0.71286 14.6891 0.43686 15.1261 0.87386C15.5631 1.31086 15.2871 2.13886 14.7361 3.79386L11.8971 12.3079C11.1131 14.6609 10.7211 15.8379 10.0001 15.8379C9.28011 15.8379 8.88711 14.6609 8.10311 12.3079L7.35311 10.0609L11.7071 5.70686C11.8893 5.51826 11.9901 5.26566 11.9878 5.00346C11.9855 4.74126 11.8803 4.49045 11.6949 4.30504C11.5095 4.11963 11.2587 4.01446 10.9965 4.01219C10.7343 4.00991 10.4817 4.1107 10.2931 4.29286L5.94011 8.64586Z" fill="#F8F8F8"/>
</svg>
