<svg width="16" height="16" viewBox="0 0 16 16" fill="none" xmlns="http://www.w3.org/2000/svg">
<path d="M5.46544 9.82994C5.62162 9.94136 5.80874 10.0012 6.0006 10.001C6.19245 10.0008 6.37946 9.94065 6.53544 9.82894C6.69136 9.71239 6.80987 9.55287 6.87644 9.36994L7.22344 8.30294C7.30667 8.05155 7.44748 7.82309 7.63464 7.63576C7.8218 7.44842 8.05013 7.3074 8.30144 7.22394L9.38744 6.87094C9.56956 6.80561 9.72655 6.68471 9.83622 6.5253C9.94589 6.3659 10.0027 6.17607 9.9986 5.98263C9.99451 5.78918 9.92974 5.60192 9.81343 5.44729C9.69712 5.29267 9.53516 5.17851 9.35044 5.12094L8.28144 4.77494C8.02987 4.69184 7.8012 4.55109 7.61369 4.36392C7.42617 4.17676 7.285 3.94835 7.20144 3.69694L6.84844 2.61294C6.78437 2.43393 6.66642 2.27917 6.51081 2.16993C6.3552 2.0607 6.16956 2.00236 5.97944 2.00294C5.78659 2.00212 5.59836 2.06192 5.44135 2.17389C5.28434 2.28586 5.16648 2.44434 5.10444 2.62694L4.74844 3.71694C4.66484 3.9609 4.52714 4.18279 4.34566 4.36601C4.16417 4.54923 3.94359 4.68903 3.70044 4.77494L2.61644 5.12594C2.43534 5.18993 2.27873 5.30883 2.16841 5.46606C2.05809 5.62328 1.99957 5.81101 2.001 6.00307C2.00243 6.19513 2.06374 6.38197 2.17639 6.53753C2.28904 6.6931 2.44741 6.80965 2.62944 6.87094L3.69644 7.21794C3.94835 7.3021 4.1772 7.44379 4.36483 7.63178C4.55247 7.81976 4.69374 8.04887 4.77744 8.30094L5.12944 9.38094C5.19244 9.56094 5.31044 9.71794 5.46644 9.82894M10.5364 13.8499C10.672 13.9463 10.8341 13.998 11.0004 13.9979C11.1684 13.9962 11.3316 13.9424 11.4676 13.8439C11.6036 13.7453 11.7055 13.607 11.7594 13.4479L12.0074 12.6859C12.0604 12.5279 12.1504 12.3829 12.2674 12.2649C12.3844 12.1469 12.5294 12.0579 12.6874 12.0059L13.4594 11.7539C13.6191 11.6992 13.7574 11.5953 13.8544 11.4572C13.9515 11.3191 14.0024 11.1539 13.9999 10.9851C13.9973 10.8163 13.9414 10.6527 13.8402 10.5176C13.739 10.3825 13.5977 10.2828 13.4364 10.2329L12.6724 9.98394C12.5145 9.93102 12.3709 9.84229 12.2529 9.72467C12.135 9.60705 12.0458 9.46374 11.9924 9.30594L11.7404 8.53194C11.6862 8.37298 11.5834 8.23512 11.4464 8.13789C11.3095 8.04067 11.1454 7.989 10.9775 7.99021C10.8095 7.99143 10.6462 8.04547 10.5107 8.14468C10.3752 8.24388 10.2743 8.38322 10.2224 8.54294L9.97544 9.30494C9.92449 9.46159 9.83807 9.60437 9.7229 9.72214C9.60772 9.83992 9.46691 9.92951 9.31144 9.98394L8.53544 10.2369C8.41797 10.2778 8.31165 10.3454 8.2249 10.4346C8.13816 10.5237 8.07338 10.6318 8.03572 10.7503C7.99806 10.8688 7.98855 10.9945 8.00794 11.1173C8.02733 11.2402 8.07509 11.3568 8.14744 11.4579C8.24644 11.5979 8.38644 11.7029 8.54744 11.7579L9.31044 12.0049C9.46893 12.0584 9.61284 12.1479 9.73085 12.2664C9.84885 12.3849 9.93772 12.5292 9.99044 12.6879L10.2434 13.4619C10.2982 13.6184 10.4003 13.754 10.5354 13.8499" fill="#E7B343"/>
</svg>
