<svg width="42" height="40" viewBox="0 0 42 40" fill="none" xmlns="http://www.w3.org/2000/svg">
<g clip-path="url(#clip0_32_1258)">
<rect width="42" height="40" rx="20" fill="#E4E4E4"/>
<path d="M19 23L24.19 20L19 17V23ZM30.56 15.17C30.69 15.64 30.78 16.27 30.84 17.07C30.91 17.87 30.94 18.56 30.94 19.16L31 20C31 22.19 30.84 23.8 30.56 24.83C30.31 25.73 29.73 26.31 28.83 26.56C28.36 26.69 27.5 26.78 26.18 26.84C24.88 26.91 23.69 26.94 22.59 26.94L21 27C16.81 27 14.2 26.84 13.17 26.56C12.27 26.31 11.69 25.73 11.44 24.83C11.31 24.36 11.22 23.73 11.16 22.93C11.09 22.13 11.06 21.44 11.06 20.84L11 20C11 17.81 11.16 16.2 11.44 15.17C11.69 14.27 12.27 13.69 13.17 13.44C13.64 13.31 14.5 13.22 15.82 13.16C17.12 13.09 18.31 13.06 19.41 13.06L21 13C25.19 13 27.8 13.16 28.83 13.44C29.73 13.69 30.31 14.27 30.56 15.17Z" fill="white"/>
</g>
<defs>
<clipPath id="clip0_32_1258">
<rect width="42" height="40" rx="20" fill="white"/>
</clipPath>
</defs>
</svg>
