<svg width="132" height="83" viewBox="0 0 132 83" fill="none" xmlns="http://www.w3.org/2000/svg">
<g clip-path="url(#clip0_200_168)">
<path d="M91.5 18.1562C91.5 17.4683 91.2267 16.8086 90.7403 16.3222C90.2539 15.8358 89.5942 15.5625 88.9062 15.5625C88.2183 15.5625 87.5586 15.8358 87.0722 16.3222C86.5858 16.8086 86.3125 17.4683 86.3125 18.1562V46.6875C86.3126 47.1447 86.4336 47.5937 86.6632 47.9891C86.8928 48.3844 87.2228 48.7121 87.6197 48.9389L105.776 59.3139C106.372 59.6359 107.07 59.7121 107.721 59.5262C108.372 59.3402 108.925 58.9069 109.261 58.3189C109.597 57.7309 109.69 57.0347 109.519 56.3792C109.349 55.7238 108.929 55.161 108.349 54.8111L91.5 45.1831V18.1562Z" fill="#808080"/>
<path d="M90.5 83C101.506 83 112.062 78.6277 119.845 70.8449C127.628 63.0622 132 52.5065 132 41.5C132 30.4935 127.628 19.9378 119.845 12.1551C112.062 4.37231 101.506 0 90.5 0C79.4935 0 68.9378 4.37231 61.1551 12.1551C53.3723 19.9378 49 30.4935 49 41.5C49 52.5065 53.3723 63.0622 61.1551 70.8449C68.9378 78.6277 79.4935 83 90.5 83ZM126.812 41.5C126.812 51.1307 122.987 60.3669 116.177 67.1768C109.367 73.9867 100.131 77.8125 90.5 77.8125C80.8693 77.8125 71.6331 73.9867 64.8232 67.1768C58.0133 60.3669 54.1875 51.1307 54.1875 41.5C54.1875 31.8693 58.0133 22.6331 64.8232 15.8232C71.6331 9.01327 80.8693 5.1875 90.5 5.1875C100.131 5.1875 109.367 9.01327 116.177 15.8232C122.987 22.6331 126.812 31.8693 126.812 41.5Z" fill="#808080"/>
</g>
<path d="M38.5 17H47.5" stroke="#808080" stroke-width="3.5" stroke-linecap="round"/>
<path d="M38 66H47" stroke="#808080" stroke-width="3.5" stroke-linecap="round"/>
<path d="M2 41H39.5" stroke="#808080" stroke-width="3.5" stroke-linecap="round"/>
<path d="M20 29H23" stroke="#808080" stroke-width="3.5" stroke-linecap="round"/>
<path d="M30.5 29H43" stroke="#808080" stroke-width="3.5" stroke-linecap="round"/>
<path d="M20 54H23" stroke="#808080" stroke-width="3.5" stroke-linecap="round"/>
<path d="M30.5 54H43" stroke="#808080" stroke-width="3.5" stroke-linecap="round"/>
<defs>
<clipPath id="clip0_200_168">
<rect width="83" height="83" fill="white" transform="translate(49)"/>
</clipPath>
</defs>
</svg>
