<svg width="30" height="30" viewBox="0 0 30 30" fill="none" xmlns="http://www.w3.org/2000/svg">
<path d="M12.6562 22.5C12.5319 22.5 12.4127 22.5494 12.3248 22.6373C12.2369 22.7252 12.1875 22.8444 12.1875 22.9688C12.1875 23.0931 12.2369 23.2123 12.3248 23.3002C12.4127 23.3881 12.5319 23.4375 12.6562 23.4375H17.3438C17.4681 23.4375 17.5873 23.3881 17.6752 23.3002C17.7631 23.2123 17.8125 23.0931 17.8125 22.9688C17.8125 22.8444 17.7631 22.7252 17.6752 22.6373C17.5873 22.5494 17.4681 22.5 17.3438 22.5H12.6562ZM9.60938 1.875C8.80129 1.875 8.02631 2.19601 7.45491 2.76741C6.88351 3.33881 6.5625 4.11379 6.5625 4.92188V25.0781C6.5625 25.8862 6.88351 26.6612 7.45491 27.2326C8.02631 27.804 8.80129 28.125 9.60938 28.125H20.3906C21.1987 28.125 21.9737 27.804 22.5451 27.2326C23.1165 26.6612 23.4375 25.8862 23.4375 25.0781V4.92188C23.4375 4.11379 23.1165 3.33881 22.5451 2.76741C21.9737 2.19601 21.1987 1.875 20.3906 1.875H9.60938ZM7.5 4.92188C7.5 4.36243 7.72224 3.82591 8.11782 3.43032C8.51341 3.03474 9.04993 2.8125 9.60938 2.8125H20.3906C20.9501 2.8125 21.4866 3.03474 21.8822 3.43032C22.2778 3.82591 22.5 4.36243 22.5 4.92188V25.0781C22.5 25.6376 22.2778 26.1741 21.8822 26.5697C21.4866 26.9653 20.9501 27.1875 20.3906 27.1875H9.60938C9.04993 27.1875 8.51341 26.9653 8.11782 26.5697C7.72224 26.1741 7.5 25.6376 7.5 25.0781V4.92188Z" fill="#EF3E5E"/>
</svg>
